<svg
  fill="currentColor"
  viewBox="0 0 50 50"
  xmlns="http://www.w3.org/2000/svg"
>
  <path d="M46 11 43.04 7.04c-1.22-1.22-3.08-1.52-4.62-.75L37 7l-5-5H18l-5 5-1.42-.71c-1.54-.77-3.4-.47-4.62.75L4 11l2 3-2 4 5.77 17.47c.79 2.28 2.38 4.19 4.47 5.38L25 47l10.76-6.15c2.09-1.19 3.68-3.1 4.47-5.38L46 18l-2-4 2-3ZM25 40l-6-6s5-3 6-3 6 3 6 3l-6 6Zm13.68-21.24L34 25l.57.85c.41.61.61 1.32.61 2.02 0 .78-.24 1.55-.73 2.19-.52.7-1.29 1.26-2.04 1.59-.51.23-1.01.35-1.41.35-.9 0-2.617-1.621-5-3.331v-1.102l4.515-2.709c.369-.221.555-.654.462-1.074l-1.459-6.566c.174-.406.444-.744.845-.964L36 14l-3-1h-2l-.014.014c-.1.002-.202.004-.303.038l-3 1c-.486.162-.771.666-.66 1.166l1.844 8.296L25 25.834l-3.868-2.321 1.844-8.296c.111-.5-.174-1.003-.66-1.166l-3-1c-.101-.034-.202-.036-.303-.038L19 13h-2l-3 1 5.638 2.253c.401.22.671.558.845.964l-1.459 6.566c-.093.42.092.853.461 1.074L24 27.566v1.126C21.553 30.436 19.884 32 19 32c-.4 0-.9-.12-1.41-.35-.75-.33-1.52-.89-2.04-1.59-.93-1.23-.98-2.92-.12-4.21L16 25l-4.68-6.24c-.79-1.05-.8-2.48-.04-3.55L15 9l2.73.55c.38.08.77.11 1.16.11 1.08 0 2.16-.29 3.1-.85.93-.56 1.97-.84 3.01-.84s2.08.28 3.01.84c1.28.76 2.8 1.03 4.26.74L35 9l3.72 6.21c.76 1.07.75 2.5-.04 3.55Z" />
</svg>
