<svg
  fill="currentColor"
  viewBox="0 0 8640 12160"
  xmlns="http://www.w3.org/2000/svg"
>
  <path d="M1786 11648c-234-233-374-413-548-701-420-699-675-1614-705-2529l-6-198h38c36 0 45 7 127 95 210 224 497 412 762 500 222 74 430 97 680 76 116-10 155-10 219 2 97 17 99 15 105-99 8-155-32-394-123-719-103-373-113-410-139-527-62-276-70-359-70-688 0-287 1-313 26-450 73-396 234-788 485-1177 188-290 376-518 807-978 386-412 480-519 609-692 201-269 353-557 432-821 19-65 75-316 75-338 0-2 17-4 38-4h39l76 158c287 595 435 1171 487 1889 6 83 17 436 25 785 15 667 25 817 71 1051 25 126 73 290 91 308 18 18 278-125 427-235 331-244 645-597 931-1043 57-91 60-93 97-93h38v78c0 168 49 489 111 732 81 313 144 491 350 977 320 758 415 1076 471 1578 20 181 17 724-5 890-39 293-93 534-174 770-183 535-465 995-875 1428-67 70-89 87-112 87-20 0-27-4-23-14 34-88 33-541-1-731-61-335-95-424-339-905-94-184-197-404-230-488-33-85-67-162-76-173-57-66-214 30-488 298-141 138-159 153-191 153-24 0-42-8-58-25-26-27-26-26 5-310 19-183 19-557 0-740-79-748-357-1351-855-1857l-126-128h-50c-41 0-55 5-74 25-23 24-23 25-11 138 37 373-24 678-214 1062-173 350-386 642-895 1225-752 862-910 1140-1012 1775-18 114-16 564 4 673l15 82h-34c-30 0-52-18-207-172Z" />
  <path d="M3674 1256c-8-44 4-96 22-96 11 0 14 16 14 65 0 50-3 65-15 65-8 0-17-14-21-34Z" />
  <path d="M1868 12082c-393-260-831-696-1113-1107-388-567-631-1194-715-1848-10-83-24-153-31-157-17-11-6-676 15-850 31-255 66-440 125-655 32-120 50-145 105-145 38 0 58 20 176 175 169 223 369 433 448 471 40 19 77 9 105-28 19-26 19-30 3-205-35-365-31-863 9-1194 35-285 130-656 238-929 78-198 228-495 342-678 196-313 381-549 838-1072 104-118 213-243 243-277 496-567 785-1053 913-1534 79-296 104-487 104-794 0-323-27-554-108-932-45-211-45-235 0-280 35-35 37-35 103-31 72 4 102 16 362 140 357 171 692 391 980 644 585 515 966 1237 1064 2019 66 519 42 1048-71 1579-47 221-52 277-24 305 22 22 70 28 100 11 10-5 51-49 92-97 223-267 454-459 700-583 184-93 289-130 372-130 68 0 75 19 58 158-22 187-25 431-7 586 50 429 186 773 554 1396 207 351 250 427 331 582 185 354 310 722 385 1128 32 178 43 260 61 470 17 202 21 756 5 762-5 2-17 55-25 118-64 487-194 916-407 1345-209 419-467 779-803 1120-139 140-342 325-357 325-4 0-8-15-8-33 0-23 8-41 26-58 93-85 391-495 561-769 462-744 702-1459 703-2087 0-175-16-381-35-448-7-27-18-68-24-90-16-66-48-174-87-295-52-165-58-180-66-180-5 0-8-11-8-24 0-31-72-227-138-376-85-191-227-443-461-815-356-567-553-994-638-1382-10-46-20-83-23-83-4 0-33 42-65 93-286 446-600 799-931 1043-130 96-338 215-428 244-36 12-41 11-56-8-10-12-29-58-44-104-52-165-88-391-105-661-9-134-8-164 14-320 27-190 55-336 110-562 114-472 131-547 164-750 81-492 63-981-54-1445-64-252-140-465-254-705-200-422-505-836-896-1219-92-90-349-326-351-323-2 1 16 54 37 117 78 224 139 484 175 742 28 193 25 666-4 848-39 242-91 418-178 607-19 40-34 77-34 81 0 5-10 24-22 43-13 19-29 52-37 74-8 22-17 42-20 45-4 3-19 30-34 60-36 72-54 102-102 175-37 57-123 174-135 185-3 3-17 21-31 40-15 19-36 46-48 60-12 14-45 52-73 85-71 82-393 402-503 500-82 72-254 230-378 345-152 141-449 456-527 559-14 18-30 38-35 44-6 7-32 44-58 82-26 39-60 88-76 110-103 142-301 497-326 585-4 14-21 53-36 88-16 34-29 66-29 71 0 19-63 196-71 199-5 2-9 14-9 26 0 12-9 28-20 36-11 8-20 20-20 27 0 7-4 13-10 13-5 0-10 7-10 15 0 8-4 15-10 15-5 0-10 7-10 15 0 8-7 15-16 15-16 0-44 23-44 36 0 3-8 14-18 23-32 28-48 163-33 273 7 51 17 99 21 107 5 9 18 45 30 81 12 36 33 86 46 113 15 28 34 102 49 185 108 588 347 1046 812 1556 89 97 87 102-44 111-154 11-370 0-488-25-354-75-697-272-963-555-49-52-92-95-97-95-12 0 3 317 25 535 102 989 443 1888 972 2558 91 115 419 447 443 447 8 0 17 10 20 23 3 12 16 71 30 130 29 127 31 155 9 185-11 16-25 22-54 22-30 0-59-14-142-68Z" />
  <path d="M6582 12127c-28-30-28-53 3-179 14-57 28-124 31-151 6-43 15-56 101-145 473-486 804-1071 966-1707 84-327 111-551 111-920 1-306-8-424-50-674-63-375-157-660-433-1314-206-486-269-664-350-977-62-242-111-564-111-732 0-46-4-78-11-80-6-2-3-13 9-28 24-29 22-32 47 85 80 379 280 813 636 1380 234 372 376 624 461 815 65 145 140 348 140 377 0 13 4 21 8 18 4-3 10 8 13 23 3 15 24 81 45 147 22 66 50 154 62 195 11 41 26 91 32 110 6 19 13 48 14 63 2 15 8 36 14 47 5 10 10 38 10 62 0 31 3 39 10 28 8-13 10-12 10 3 0 9-3 17-8 17-4 0-4 35 0 78 12 134 8 442-7 578-79 713-413 1473-994 2264-102 139-219 286-255 319-14 13-23 27-21 32 7 10-130 116-274 213-127 86-169 96-209 53Z" />
  <path d="M7085 11840c10-11 23-20 28-20 6 0 2 9-8 20s-23 20-28 20c-6 0-2-9 8-20Z" />
  <path d="M2325 8924c-38-8-83-11-100-9-25 5-35 0-65-34-172-194-228-262-304-364-293-394-455-764-541-1229-15-83-34-157-49-185-13-27-34-77-46-113-12-36-26-74-30-85-27-63-41-347-18-361 4-3 8-18 8-35 0-16 5-29 10-29 6 0 10-7 10-16 0-8 5-12 11-8 7 4 7-1-1-16-11-20-10-21 9-15 16 5 21 2 21-10 0-12 6-16 20-12 11 3 20 1 20-4 0-5-6-9-12-9-9 0-8-3 2-9 8-6 18-7 23-4 4 3 7-3 5-13-2-11 2-18 10-16 6 1 12-5 12-13 0-8 5-15 10-15 6 0 10-7 10-16 0-8 4-12 10-9 5 3 7 0 4-8-3-8 1-21 9-29 13-13 77-188 77-209 0-5 13-37 29-71 15-35 32-74 36-88 25-88 223-443 326-585 16-22 50-71 76-110 26-38 52-75 58-82 5-6 21-26 35-44 78-103 375-418 527-559 124-115 296-273 378-345 110-98 432-418 503-500 28-33 61-71 73-85 12-14 33-41 48-60 14-19 28-37 31-40 12-11 98-128 135-185 48-73 66-103 102-175 15-30 30-57 34-60 3-3 12-23 20-45 8-22 24-55 37-74 12-19 22-37 22-42 0-4 14-37 30-73 17-36 30-68 30-71 0-3 7-19 15-36 14-26 47-118 61-169 83-307 100-439 98-785-3-414-85-823-251-1242-20-51-33-96-30-99 9-9 52 25 213 170 659 593 1017 1088 1283 1776 55 142 126 401 160 585 41 216 52 331 58 585 6 273-8 472-48 715-33 204-46 261-169 770-67 278-104 493-135 788-4 32-9 56-12 53-3-3-12-281-19-618-7-337-18-683-24-768-45-635-166-1157-391-1683-51-118-163-353-175-366-9-9-15 10-39 131-46 226-92 360-196 571-78 156-174 310-286 460-129 173-223 280-609 692-431 460-619 688-807 978-251 389-412 781-485 1177-24 134-26 165-26 420 0 296 10 389 70 658 26 117 36 154 139 527 60 217 96 385 115 537 15 122 10 319-9 341-16 20-48 20-146 1Z" />
</svg>
