<svg
  fill="currentColor"
  viewBox="0 0 224 224"
  xmlns="http://www.w3.org/2000/svg"
>
  <path d="M60.38 218.49c-13.37-1.38-24.76-5.95-34.45-13.82-2.32-1.88-6.74-6.32-8.64-8.71-3.33-4.13-6.19-8.86-8.23-13.63-3.04-7.13-4.88-15.73-4.97-23.27l-.04-3.19 21.15-.07 21.17-.04.13.59c.77 3.61 2.17 7.02 4.05 9.91 1.23 1.88 5.6 6.21 7.53 7.48 2.08 1.36 4.38 2.49 6.76 3.33l1.99.7.07 20.5.04 20.5-2.34-.02c-1.31-.02-3.19-.13-4.22-.24Z" />
  <path d="M80.98 198.06l.07-20.69 2.19-.92c5.88-2.49 10.32-6.5 13.63-12.23 1.18-2.08 1.97-4.13 2.71-7.07.39-1.58.48-2.58.48-5.23.02-2.89-.07-3.57-.59-5.67-1.44-5.53-3.96-9.71-8.25-13.74-4.16-3.89-9.6-6.41-15.64-7.2-5.84-.77-13.32 1.31-18.92 5.25-3.06 2.14-6.63 6.3-8.4 9.82l-.57 1.14H4.72l.09-39.75c.09-42.39.07-41.28 1.14-47.58 2.25-13.06 7.79-24.04 16.52-32.77 10.85-10.83 25.13-16.8 42.17-17.61l3.11-.15v20.56l-.7.15c-.39.09-.85.24-1.05.33-.17.11-1.23.55-2.32.98-3.35 1.36-7.57 4.38-9.98 7.18-5.05 5.86-7.55 13.8-6.41 20.52 1.51 9.08 6.74 16.08 15.09 20.26 4.07 2.06 7.42 2.8 12.36 2.78 3.52 0 3.67-.02 6.34-.81 10.39-3.11 18.07-11.2 19.97-21.04.74-3.85.63-6.65-.37-10.65-2.17-8.55-8.9-16.01-17.15-18.99l-1.36-.5V7.42h40.1c39.77.07 40.1.07 43.36.55 4.51.63 6.52 1.03 9.84 1.9 10.94 2.84 19.97 7.9 27.37 15.29 10.3 10.32 16.12 23.45 17.5 39.57l.13 1.68-20.61-.04-20.63-.07-.7-1.64c-3.13-7.31-9.27-12.88-17.02-15.4-2.43-.81-6.06-1.44-8.16-1.44-1.9 0-5.58.61-5.99.98-.2.17-.72.33-1.16.33-.44 0-1.42.24-2.17.52-6.39 2.38-11.81 7.11-14.85 12.88-1.38 2.67-1.9 4.03-2.43 6.39-.83 3.83-.9 7.15-.15 10.5 1.42 6.58 5.67 12.67 11.62 16.69 1.62 1.12 5.16 2.76 7.13 3.33l1.79.52V126l-1.42.37c-.79.22-1.53.52-1.66.68-.13.17-.48.31-.77.31-.68 0-3.19 1.27-5.45 2.71-8.47 5.51-13.26 16.1-11.59 25.64 1.75 10.02 9.49 18.73 19.21 21.55l1.68.5v20.41h-65.4l.04-20.69Z" />
  <path d="M160.34 198.23v-20.56l.83-.26c1.9-.61 4.64-1.9 6.17-2.91 7.9-5.27 12.25-12.67 12.62-21.48.31-7.18-2.41-13.85-7.85-19.36-2.95-3-6.23-5.1-10.08-6.45l-1.68-.61.04-15.42.07-15.42 1.16-.39c7.26-2.47 13.93-9.14 16.47-16.45l.61-1.79 20.58-.07 20.58-.04-.09 42.04c-.07 29.18-.15 42.7-.33 44.14-1.09 9.17-2.89 15.53-6.39 22.64-1.77 3.61-4.16 7.39-6.3 10.06-2.93 3.61-8.23 8.62-11.97 11.31-3.22 2.3-8.62 5.27-12.4 6.82-1.95.79-8.05 2.76-8.57 2.76-.15 0-.42.13-.55.31-.13.15-.88.35-1.73.42-.81.07-2.69.33-4.2.57-1.51.26-3.7.52-4.86.59l-2.14.15Z" />
</svg>
